<?xml version="1.0" encoding="UTF-8"?>
<svg enable-background="new 0 0 51.976 51.976" version="1.1" viewBox="0 0 51.976 51.976" xml:space="preserve" xmlns="http://www.w3.org/2000/svg">

	<path d="m44.373 7.603c-10.137-10.137-26.632-10.138-36.77 0s-10.137 26.632 0 36.77 26.632 10.138 36.77 0c10.137-10.138 10.137-26.633 0-36.77zm-8.132 28.638c-0.781 0.781-2.047 0.781-2.828 0l-7.425-7.425-7.778 7.778c-0.781 0.781-2.047 0.781-2.828 0s-0.781-2.047 0-2.828l7.778-7.778-7.425-7.425c-0.781-0.781-0.781-2.048 0-2.828 0.781-0.781 2.047-0.781 2.828 0l7.425 7.425 7.071-7.071c0.781-0.781 2.047-0.781 2.828 0s0.781 2.047 0 2.828l-7.071 7.071 7.425 7.425c0.781 0.781 0.781 2.047 0 2.828z"/>
















</svg>
