<svg xmlns="http://www.w3.org/2000/svg" viewBox="0 0 23.6 23.6"><path fill="#fff" d="M11.8 0C5.3 0 0 5.3 0 11.8s5.3 11.8 11.8 11.8 11.8-5.3 11.8-11.8S18.3 0 11.8 0zM14.3 18.3c-0.6 0.2-1.1 0.4-1.5 0.5 -0.4 0.1-0.8 0.2-1.3 0.2 -0.7 0-1.3-0.2-1.7-0.5s-0.6-0.8-0.6-1.4c0-0.2 0-0.4 0-0.7 0-0.2 0.1-0.5 0.1-0.8l0.8-2.7c0.1-0.3 0.1-0.5 0.2-0.7 0-0.2 0.1-0.4 0.1-0.6 0-0.3-0.1-0.6-0.2-0.7 -0.1-0.1-0.4-0.2-0.8-0.2 -0.2 0-0.4 0-0.6 0.1 -0.2 0.1-0.4 0.1-0.5 0.2l0.2-0.8c0.5-0.2 1-0.4 1.4-0.5 0.5-0.1 0.9-0.2 1.3-0.2 0.7 0 1.3 0.2 1.7 0.5 0.4 0.4 0.6 0.8 0.6 1.4 0 0.1 0 0.3 0 0.6 0 0.3-0.1 0.6-0.2 0.8l-0.8 2.7c-0.1 0.2-0.1 0.5-0.2 0.7 0 0.3-0.1 0.5-0.1 0.6 0 0.4 0.1 0.6 0.2 0.7 0.2 0.1 0.4 0.2 0.8 0.2 0.2 0 0.4 0 0.6-0.1 0.2-0.1 0.4-0.1 0.5-0.2L14.3 18.3zM14.1 7.4c-0.4 0.3-0.8 0.5-1.3 0.5 -0.5 0-0.9-0.2-1.3-0.5 -0.4-0.3-0.5-0.7-0.5-1.2 0-0.5 0.2-0.9 0.5-1.2 0.4-0.3 0.8-0.5 1.3-0.5 0.5 0 0.9 0.2 1.3 0.5 0.4 0.3 0.5 0.7 0.5 1.2C14.7 6.7 14.5 7.1 14.1 7.4z"/></svg>